# xmcd
# 
# Track frame offsets:
#     150
#     10892
#     27095
#     40406
#     58658
#     73642
#     91479
#     106596
#     120191
#     134178
#     160516
#     170091
#     186196
#     201115
#     225958
#     246679
# 
# Disc length: 3430
# 
# Revision: 0
# Processed by: cddbd v1.5.2PL0 Copyright (c) Steve Scherf et al.
# Submitted via: fre:ac v1.0.17
# 
DISCID=d50d6410
DTITLE=Blondie - Parallel Lines
DYEAR=1978
DGENRE=Rock
TTITLE0=Hanging On The Telephone
TTITLE1=One Way Or Another
TTITLE2=Picture This
TTITLE3=Fade Away And Radiate
TTITLE4=Pretty Baby
TTITLE5=I Know But I Don't Know
TTITLE6=11 59
TTITLE7=Will Anything Happen?
TTITLE8=Sunday Girl
TTITLE9=Heart Of Glass
TTITLE10=I'm Gonna Love You Too
TTITLE11=Just Go Away
TTITLE12=Once I Had A Love (aka The Disco Song) (1978 Version)
TTITLE13=Bang A Gong (Get It On) (LIVE)
TTITLE14=I Know But I Don't Know (LIVE)
TTITLE15=Hanging On The Telephone (LIVE)
EXTD=YEAR: 1978
EXTT0=
EXTT1=
EXTT2=
EXTT3=
EXTT4=
EXTT5=
EXTT6=
EXTT7=
EXTT8=
EXTT9=
EXTT10=
EXTT11=
EXTT12=
EXTT13=
EXTT14=
EXTT15=
PLAYORDER=
